<?xml version="1.0" standalone="no"?>
<!DOCTYPE svg PUBLIC "-//W3C//DTD SVG 20010904//EN"
 "http://www.w3.org/TR/2001/REC-SVG-20010904/DTD/svg10.dtd">
<svg version="1.0" xmlns="http://www.w3.org/2000/svg"
 width="50.000000pt" height="50.000000pt" viewBox="0 0 50.000000 50.000000"
 preserveAspectRatio="xMidYMid meet">

<g transform="translate(0.000000,50.000000) scale(0.100000,-0.100000)"
fill="#000000" stroke="none">
<path d="M201 455 c-16 -14 -35 -41 -41 -60 -10 -29 -16 -35 -39 -35 -27 0
-29 -3 -34 -52 -4 -29 -9 -101 -13 -160 l-7 -108 187 0 c185 0 186 0 186 22 0
12 -5 84 -12 160 l-11 138 -29 0 c-24 0 -31 6 -44 40 -19 46 -56 80 -90 80
-12 0 -36 -11 -53 -25z m87 -1 c22 -15 52 -63 52 -84 0 -6 -32 -10 -85 -10
-94 0 -100 6 -68 60 27 47 65 59 101 34z m-142 -139 c-4 -22 -3 -35 4 -35 5 0
10 16 10 35 l0 36 93 -3 92 -3 -2 -33 c-1 -21 3 -32 10 -29 7 2 11 18 9 35 -3
28 -1 32 21 32 24 0 24 -2 31 -107 4 -60 9 -127 12 -151 l6 -42 -177 0 -178 0
6 63 c4 34 9 101 13 150 7 84 8 87 31 87 23 0 25 -3 19 -35z"/>
</g>
</svg>
