<?xml version="1.0" standalone="no"?>
<!DOCTYPE svg PUBLIC "-//W3C//DTD SVG 20010904//EN"
 "http://www.w3.org/TR/2001/REC-SVG-20010904/DTD/svg10.dtd">
<svg version="1.0" xmlns="http://www.w3.org/2000/svg"
 width="50.000000pt" height="50.000000pt" viewBox="0 0 50.000000 50.000000"
 preserveAspectRatio="xMidYMid meet">

<g transform="translate(0.000000,50.000000) scale(0.100000,-0.100000)"
style="fill: #000000; stroke: none;">
<path d="M155 456 c-60 -28 -87 -56 -114 -116 -36 -79 -19 -183 42 -249 33
-36 115 -71 167 -71 52 0 134 35 167 71 34 37 63 110 63 159 0 52 -35 134 -71
167 -37 34 -110 63 -159 63 -27 0 -65 -10 -95 -24z m173 -12 c174 -72 174
-316 0 -388 -133 -56 -287 47 -288 192 -1 147 154 253 288 196z"/>
<path d="M202 393 c-30 -26 -36 -63 -14 -98 l18 -29 -41 -21 c-36 -18 -40 -24
-43 -62 l-3 -43 131 0 131 0 -3 43 c-3 38 -7 44 -43 62 l-41 21 18 29 c32 52
-2 115 -62 115 -15 0 -37 -8 -48 -17z m95 -29 c15 -24 15 -29 2 -53 -11 -20
-22 -26 -49 -26 -27 0 -38 6 -49 26 -13 24 -13 29 2 53 12 18 26 26 47 26 21
0 35 -8 47 -26z"/>
</g>
</svg>
